<?xml version="1.0" encoding="UTF-8" standalone="no"?>
<svg width="42px" height="40px" viewBox="0 0 42 40" version="1.1" xmlns="http://www.w3.org/2000/svg" xmlns:xlink="http://www.w3.org/1999/xlink">
    <!-- Generator: Sketch 3.8.3 (29802) - http://www.bohemiancoding.com/sketch -->
    <title>TheBreakers_Logo_1ColorRGB_Navy_web</title>
    <desc>Created with Sketch.</desc>
    <defs></defs>
    <g id="Page-1" stroke="none" stroke-width="1" fill="none" fill-rule="evenodd">
        <g id="TheBreakers_Logo_1ColorRGB_Navy_web" fill="#004D7D">
            <g id="Group">
                <path d="M13.6,26.6 C13.6,26.5 13.6,26.5 13.5,26.4 C13.5,26.3 13.4,26.2 13.3,26.1 L13.2,26 C13.1,25.9 13.1,25.8 13,25.7 L13,25.7 C12.8,25.5 12.5,25.2 12.2,25.1 L12.2,25.1 L12.2,25.1 L12.2,25.1 C11.7,24.8 11.2,24.6 10.6,24.5 L10.3,24.5 C9.2,24.5 8.2,24.8 7.4,25.3 C7.3,25.3 7.3,25.4 7.2,25.4 C5.9,26.4 5.1,28.1 5.1,30.6 C5.1,32.2 5.7,33.7 6.7,34.8 L6.7,34.8 C6.2,33.8 5.9,32.7 5.9,31.5 C5.9,29 7.2,26.8 9.2,25.5 C7.9,26.4 7,28 7,30.6 C7,32.2 7.6,33.7 8.6,34.8 L8.6,34.8 C8.1,33.8 7.8,32.7 7.8,31.5 C7.8,29 9.2,26.7 11.2,25.5 L11.2,25.5 C9.9,26.4 8.9,28 8.9,30.6 C8.9,32.2 9.5,33.7 10.5,34.8 L10.5,34.8 C10,33.8 9.7,32.7 9.7,31.5 C9.7,29.3 10.7,27.4 12.2,26.1 C13,26.7 13.5,27.3 13.5,27.3 C13.5,27.1 13.4,27 13.4,26.8 C13.6,26.8 13.6,26.7 13.6,26.6 L13.6,26.6 Z" id="Shape"></path>
                <path d="M27.8,17.5 C31.8,16 34.5,11.8 33.4,7.6 C32.4,3.6 28.4,0.9 24.4,0.9 L15.2,0.9 L11.6,0.9 L4.7,0.9 L1.1,0.9 L0.4,0.9 L0.4,1.5 C0.4,1.5 3.7,1 4.5,3.8 C4.6,4.4 4.7,5.1 4.7,5.9 L4.7,23.7 C3.4,25.3 2.7,27.2 2.7,29.4 C2.7,31.6 3.5,33.5 4.7,35.1 C4.7,35.7 4.6,36.1 4.5,36.5 C3.6,39.2 0.4,38.7 0.4,38.7 L0.4,39.3 L24.4,39.3 L24.9,39.3 C30,39.3 34.3,35.3 35.2,30.4 C36.2,25 33.2,19.2 27.8,17.5 L27.8,17.5 Z M18.1,38.5 L17.2,38.5 L12.5,38.5 C8.2,38.5 4.6,35.2 4.2,30.9 L4.2,30.2 C4.2,28.4 4.9,26.7 6,25.5 C7.1,24.1 8.9,23.4 10.8,23.6 C13.1,23.9 14.9,25.4 15.4,27.6 C15.4,27.7 15.4,27.8 15.5,27.9 L15.5,28.4 C15.5,29.3 15,30.5 13.8,29.8 L13.8,29.8 L13.8,29.8 L13.8,29.8 L13.8,29.8 L13.8,30 C13.8,32.3 15.7,34.3 18,34.3 C20.3,34.3 22.3,32.3 22.2,29.9 C22.2,29.8 22.2,30 22.2,29.9 L22.2,29.9 C22.2,24.5 17.9,20.2 12.5,20.2 L11.9,20.2 L11.9,6.4 L11.9,1.9 L17.9,1.9 L18.3,1.9 C21.2,1.9 23.7,3.4 25.1,5.6 C25.2,5.7 25.3,5.9 25.4,6 L25.4,6 C26,7.1 26.4,8.4 26.4,9.8 C26.4,10.2 26.4,10.5 26.3,10.9 C25.8,14.7 22.6,17.7 18.8,17.9 L18,17.9 L17.8,17.9 L17.8,18.6 L18.2,18.6 C23.6,18.6 28,23 28,28.4 C27.9,34.1 23.5,38.5 18.1,38.5 L18.1,38.5 Z" id="Shape"></path>
            </g>
            <path d="M35,4.25452017 C35,6.04450626 36.4554937,7.5 38.2454798,7.5 C40.0354659,7.5 41.5,6.04450626 41.5,4.25452017 C41.5,2.46453408 40.0354659,1 38.2454798,1 C36.4554937,1 35,2.46453408 35,4.25452017 L35,4.25452017 Z M35.623783,4.25452017 C35.623783,2.79902643 36.7990264,1.63282337 38.2454798,1.63282337 C39.7009736,1.63282337 40.8671766,2.79902643 40.8671766,4.25452017 C40.8671766,5.70097357 39.7009736,6.87621697 38.2454798,6.87621697 C36.7990264,6.87621697 35.623783,5.70097357 35.623783,4.25452017 L35.623783,4.25452017 Z M37.0792768,5.72809458 C37.0792768,5.81849791 37.1515994,5.89986092 37.2510431,5.89986092 L37.5855355,5.89986092 C37.6849791,5.89986092 37.7573018,5.81849791 37.7573018,5.72809458 L37.7573018,4.70653686 L38.3178025,4.70653686 L38.7698192,5.77329624 C38.7969402,5.83657858 38.8602225,5.89986092 38.9325452,5.89986092 L39.3393602,5.89986092 C39.4659249,5.89986092 39.5563282,5.77329624 39.4930459,5.65577191 C39.3393602,5.33031989 39.1766342,4.9867872 39.0139082,4.65229485 C39.2851182,4.55285118 39.7009736,4.29972184 39.7009736,3.65785814 C39.7009736,2.97079277 39.1495132,2.59109875 38.5890125,2.59109875 L37.2510431,2.59109875 C37.1515994,2.59109875 37.0792768,2.67246175 37.0792768,2.76286509 L37.0792768,5.72809458 Z M37.7392211,4.10987483 L37.7392211,3.22392211 L38.5438108,3.22392211 C38.8150209,3.22392211 38.9958275,3.40472879 38.9958275,3.66689847 C38.9958275,3.91098748 38.8150209,4.10987483 38.5438108,4.10987483 L37.7392211,4.10987483 Z" id="®"></path>
        </g>
    </g>
</svg>